<?xml version="1.0" standalone="no"?>
<!DOCTYPE svg PUBLIC "-//W3C//DTD SVG 20010904//EN"
 "http://www.w3.org/TR/2001/REC-SVG-20010904/DTD/svg10.dtd">
<svg version="1.0" xmlns="http://www.w3.org/2000/svg"
 width="260.000000pt" height="260.000000pt" viewBox="0 0 260.000000 260.000000"
 preserveAspectRatio="xMidYMid meet">
<metadata>
Created by potrace 1.14, written by Peter Selinger 2001-2017
</metadata>
<g transform="translate(0.000000,260.000000) scale(0.100000,-0.100000)"
fill="#000000" stroke="none">
<path d="M288 2490 c-54 -48 -91 -87 -126 -128 l-32 -40 2 -1029 3 -1030 30
-36 c17 -20 40 -50 53 -67 13 -16 30 -30 37 -30 7 0 32 -16 55 -35 l42 -35
961 0 961 0 23 23 c14 12 48 33 76 47 43 21 54 32 67 66 8 23 27 57 43 75 l27
33 -2 1003 -3 1003 -21 15 c-12 8 -29 32 -37 54 -9 22 -28 48 -42 58 -14 10
-44 33 -66 51 l-41 32 -989 0 -988 0 -33 -30z m372 -415 c7 -8 30 -25 51 -37
22 -12 39 -26 39 -30 0 -5 18 -29 41 -53 22 -24 59 -65 82 -91 47 -53 108
-119 152 -167 17 -18 39 -45 49 -62 10 -16 29 -41 42 -55 63 -69 61 -132 -8
-209 -85 -96 -185 -205 -225 -247 -24 -24 -43 -47 -43 -51 0 -5 -39 -50 -87
-101 l-88 -92 -136 0 c-136 0 -159 6 -159 39 0 8 17 30 38 51 37 36 89 93 150
166 18 21 75 88 127 148 92 105 155 190 155 208 0 5 -17 27 -37 48 -21 22 -56
61 -78 86 -22 25 -56 63 -75 85 -42 46 -93 105 -154 179 -51 61 -111 174 -101
190 4 6 57 10 129 10 98 0 126 -3 136 -15z m1542 -1345 c48 -14 68 -43 68
-100 0 -60 -16 -80 -71 -91 -24 -4 -223 -8 -441 -9 l-396 0 -31 26 c-27 22
-31 32 -31 74 0 38 6 55 26 79 l26 31 406 0 c249 0 421 -4 444 -10z"/>
</g>
</svg>
